<?xml version="1.0" encoding="utf-8"?>
<!-- Generator: Adobe Illustrator 25.0.1, SVG Export Plug-In . SVG Version: 6.00 Build 0)  -->
<svg version="1.1" id="Layer_1" xmlns="http://www.w3.org/2000/svg" xmlns:xlink="http://www.w3.org/1999/xlink" x="0px" y="0px"
	 viewBox="0 0 576 121.9" style="enable-background:new 0 0 576 121.9;" xml:space="preserve">
<style type="text/css">
	.st0{fill:#FFFFFF;}
	.st1{fill:#1D428A;}
	.st2{fill:#C8102E;}
</style>
<g>
	<g>
		<path class="st0" d="M35,0H10.7C4.8,0,0,4.8,0,10.7v82.1c0,5.9,4.8,10.7,10.7,10.7H35c5.9,0,10.7-4.8,10.7-10.7V10.7
			C45.7,4.8,40.9,0,35,0"/>
		<path class="st1" d="M33.9,91.3c-1.3-1.2-0.4-1.7-0.5-2.1c-0.9-3.6-3.7-5.8-2.2-6.9c-0.4-1.2-1.1-2.7-1.1-2.7
			c-4.4-2.5-8.2-6.7-8.9-7.3c-0.8-0.8-2.1-1.7-2.4-2.4c-1.1-1-6.3-8.4-7.5-11.1l-2.1-0.3c-1-3.9-4.2-7.3-4.3-11.2
			c0-1.5,0.7-4.7,0.9-5.3c0.3-0.6,1.5-1.7,1.5-1.7v-1.1c-4.6,0.1-3.3-0.3-4.1-2.1c-0.6-1.2-0.2-1.5,0-2.4C4,32,6.1,28.1,6.9,26.3
			c0.3-0.9,1.2-3.1,1.2-3.1c3.5-7,4.7-6.5,8.8-6.9l0.2-0.3c4.1-0.2,3.4-0.5,4-4.4c-0.6,0.3-0.8-1.2-0.8-1.2C20,8,21,8.5,21.4,8.4
			c0.1-3.7,0.5-4.9,3.1-5.9H10.7c-4.5,0-8.2,3.7-8.2,8.2v82.1c0,4.5,3.7,8.2,8.2,8.2H35C32.2,99.5,33.8,96.7,33.9,91.3"/>
		<path class="st2" d="M29,19l0,0.3c0.7,0.4,1.1,0.8,1.9,1.3c2,1.2,4.4,3.5,4.1,11.1c0.6,1.7,0.8,4.9,1.3,6c1,2,1.7,3.4,2,5.3
			c0,0,0.3,3,0.7,3.2c2,0.5,1.5,0.7,1.8,1c0.3,0.4,1.5,0.4,1.5,1.5c0.4,0.5,0.7,1.1,0.9,1.7V10.7c0-4.5-3.7-8.2-8.2-8.2h-7.8
			c1.3,0.4,2,1,2.4,1.8c1,0.1,2.2,2.4,0.3,5.7c0.8,0.6,0.2,1.4-0.4,2.3c-0.2,0.3-0.4,0.9-0.9,0.8c-0.7,1.5-1.6,2.9-2.2,3
			c-0.2,0.2-0.3,0.9,0,1.2C27.2,17.9,28.4,18.4,29,19"/>
		<path class="st2" d="M43.2,55.8c-1.1,2.7-3.7,4.6-6.8,4.6c-4,0-7.3-3.3-7.3-7.3c0-3.4,2.4-6.3,5.6-7.1c-0.8-2.1-2.6-5.5-3.1-6.6
			c-0.5-1.1-1.7-8.1-2-9.4c-0.1-0.3-3.2,1.8-3.2,1.9C26.2,32,24,37.6,24,37.9c0,0.2,0,0.9,0,0.9s1.1,0.1,1.7,2
			c0.6,1.8,2.4,8.5,2.4,8.5s-0.5,0.5-0.5,0.5c2.3,7.7,1.5,11.1,2.5,13.3c1.3,3.2,1.7,2.8,2.8,5.5c0.8,2,1.7,9.6,2,10
			c1.2,1.6,1.9,2.8,1.9,3.7c0,0.9-1.1,3.5-0.7,5.1c0.2,0.9,0.4,2.9,0.8,3.3c0,0,0.4,0.8,0.2,1.1c-0.1,0.1-0.2,0.3-0.1,0.4
			c0.7,2.4,2.9,6.6-0.7,8.7h0.1c3.9-0.6,6.9-4,6.9-8.1V55.8z"/>
	</g>
	<g>
		<g>
			<path class="st1" d="M69.3,101H57.7V2.3h18l12,81.4c-1.8-19.4-4.1-50.6-4.1-67V2.3h11.6V101H78.7L67.6,22
				c1,17.7,1.7,38.8,1.7,50.7V101z"/>
			<path class="st1" d="M101.8,101V2.3h16.4c10.9,0,17.7,5.9,17.7,19.8v14.5c0,9-2.8,13.5-6.6,15.9c3.9,2.5,6.6,6.9,6.6,14.5v14.4
				c0,13.5-7.2,19.6-17.7,19.6H101.8z M115,14.8v32.6h1.7c4.7,0,5.9-1.8,5.9-7.2V21.4c0-4.6-1.4-6.6-5.4-6.6H115z M115,58.2v30.4
				h2.2c4.1,0,5.4-2.3,5.4-7.1V64.8c0-4.8-1.5-6.6-5.9-6.6H115z"/>
			<path class="st1" d="M160.8,82.5h-8.3l-1.1,18.5H138l9.7-98.7h18.8l9.4,98.7h-14L160.8,82.5z M153,71.3h7.1L159,53.2
				c-0.4-7.2-1.5-30-2.3-42.3h-0.6l-1.9,42.3L153,71.3z"/>
		</g>
		<g>
			<path class="st1" d="M562.7,84.8c0,3.9-0.7,5.8-3.3,5.8c-2.9,0-3.3-2.2-3.3-5.8v-9h-13.3v8c0,13.4,4.8,18.1,16.3,18.1
				S576,95.4,576,82.9c0-6.9-2.9-15-10.5-24c-6.8-8-9.4-12.6-9.4-18.7c0-4.2,1-6.1,3.5-6.1c2.5,0,3.2,1.7,3.2,7.2v8.3h13.2V41
				c0-13.7-5-18.1-16.6-18.1c-11.9,0-16.5,7.8-16.5,18.8c0,10,4.6,17.9,11.1,25.5C560.4,74.6,562.7,79.9,562.7,84.8 M524.5,84.8
				c0,3.9-0.7,5.8-3.3,5.8c-2.9,0-3.3-2.2-3.3-5.8v-9h-13.3v8c0,13.4,4.8,18.1,16.3,18.1c11.5,0,16.9-6.6,16.9-19.1
				c0-6.9-2.9-15-10.5-24c-6.8-8-9.4-12.6-9.4-18.7c0-4.2,1-6.1,3.5-6.1c2.5,0,3.2,1.7,3.2,7.2v8.3h13.2V41c0-13.7-5-18.1-16.6-18.1
				c-11.9,0-16.5,7.8-16.5,18.8c0,10,4.6,17.9,11.1,25.5C522.1,74.6,524.5,79.9,524.5,84.8 M479.2,84.3V72.4c0-5,1.7-6.8,6.6-6.9v24
				c-1.1,0.4-2.2,0.7-3.2,0.7C479.8,90.1,479.2,87.9,479.2,84.3 M488,101.2h11.2V42.5c0-14.3-4.6-19.7-16.5-19.7
				c-11.4,0-16.5,4.7-16.5,18.8v9.7h13v-9.7c0-5.5,0.8-6.9,3.3-6.9c2.5,0,3.3,1.2,3.3,6.9v15.5c-12.5-1.7-19.9,3.7-19.9,15.9v15.4
				c0,9.4,3.7,13.6,10.7,13.6c4.7,0,8-2.5,10.1-5.5C487.1,98.3,487.5,100.1,488,101.2 M442.4,14.8c4.2,0,5.4,2.4,5.4,7.1V53
				c0,4.6-1.2,6.9-5.4,6.9h-2.2V14.8H442.4z M443.4,71.8c11.2,0,17.7-6.6,17.7-20.2V22.3c0-13.6-6.5-19.9-17.7-19.9h-16.5v98.9h13.3
				V71.8H443.4z M389.5,40.5c0-4.4,1-5.8,3.3-5.8c2.4,0,3.3,1.4,3.3,5.8v16.8h-6.6V40.5z M409.4,82.8V71h-13.3v13.3
				c0,4.4-0.8,5.8-3.3,5.8c-2.5,0-3.3-1.4-3.3-5.8V66h19.9v-24c0-15.6-6.2-19.2-16.6-19.2c-10.4,0-16.6,3.6-16.6,19.2v40.7
				c0,15.6,6.2,19.2,16.6,19.2C403.2,102,409.4,98.4,409.4,82.8 M359.1,101.2h11.2V23.6H357v65.9c-1,0.3-2.1,0.6-3.3,0.6
				c-2.4,0-3.3-1.4-3.3-4.6V23.6h-13.3v65.8c0,9,4.6,12.6,10.4,12.6c5.1,0,8.3-2.8,10.4-5.5C358.2,98.4,358.7,100.1,359.1,101.2
				 M305.4,107.5c0-1.4,0.3-2.5,1-3.6c2.1,0.7,4.4,1.1,7.1,1.2c5.5,0.4,7.2,1,7.2,3.3c0,2.9-2.5,3.9-6.6,3.9
				C309.6,112.4,305.4,111.1,305.4,107.5 M316.5,40.5v29.6c0,4.6-0.7,5.8-3.3,5.8c-2.4,0-3.3-1.2-3.3-5.8V40.5
				c0-4.4,1.1-5.8,3.3-5.8C315.7,34.7,316.5,36.1,316.5,40.5 M332,106.7c0-9-4.4-13-13-14.1c-9.4-1.1-12.2-1.7-12.2-4.2
				c0-0.3,0.1-0.7,0.4-1c1.8,0.4,3.7,0.6,6,0.6c10.5,0,16.6-3.6,16.6-19.2V42.1c0-2.6-0.1-4.8-0.6-6.8l3-0.8
				c0.4-3.6,0.8-7.2,0.8-10.7c0-0.7-0.4-1-1.1-1c-3,0-5.4,1.2-6.8,3.5c-2.9-2.6-6.9-3.5-12-3.5c-10.4,0-16.6,3.6-16.6,19.2v26.7
				c0,8.9,2.1,14,5.7,16.6c-2.9,2.1-4.8,4.8-4.8,8.3c0,3.7,1.7,6.4,4.4,8.2c-3.5,2.1-6.1,5.4-6.1,9.3c0,7.2,6.2,10.8,18.6,10.8
				C326.7,121.9,332,115.2,332,106.7 M270.9,84.3V72.4c0-5,1.7-6.8,6.6-6.9v24c-1.1,0.4-2.2,0.7-3.2,0.7
				C271.4,90.1,270.9,87.9,270.9,84.3 M279.6,101.2h11.2V42.5c0-14.3-4.6-19.7-16.5-19.7c-11.4,0-16.5,4.7-16.5,18.8v9.7h13v-9.7
				c0-5.5,0.8-6.9,3.3-6.9c2.5,0,3.3,1.2,3.3,6.9v15.5c-12.5-1.7-19.9,3.7-19.9,15.9v15.4c0,9.4,3.7,13.6,10.7,13.6
				c4.7,0,8-2.5,10.1-5.5C278.8,98.3,279.2,100.1,279.6,101.2 M231.8,40.5c0-4.4,1-5.8,3.3-5.8s3.3,1.4,3.3,5.8v16.8h-6.6V40.5z
				 M251.7,82.8V71h-13.3v13.3c0,4.4-0.8,5.8-3.3,5.8c-2.5,0-3.3-1.4-3.3-5.8V66h19.9v-24c0-15.6-6.2-19.2-16.6-19.2
				c-10.4,0-16.6,3.6-16.6,19.2v40.7c0,15.6,6.2,19.2,16.6,19.2C245.5,102,251.7,98.4,251.7,82.8 M214.7,88.7h-10.9V2.3h-13.3v98.9
				h24.2V88.7z"/>
		</g>
	</g>
</g>
</svg>
